<svg width="36" height="13" viewBox="0 0 36 13" fill="none" xmlns="http://www.w3.org/2000/svg">
<g clip-path="url(#clip0_23_995)">
<path d="M14.25 13.5H5.25V11.25H12V0H14.25V13.5ZM3 6.75V4.5H5.25V6.75H3Z" fill="#36363F"/>
<path d="M30 9H23.25V6.75H27.75V4.5H30V2.25H27.75V0H30V2.25H32.25V6.75H30V9H32.25V13.5H14.25V11.25H30V9ZM14.25 4.5H21V6.75H14.25V4.5ZM21 4.5V2.25H23.25V4.5H21Z" fill="#36363F"/>
<path d="M12 11.25H5.25V4.5H3V2.25H5.25V0H12V11.25Z" fill="#BC5651"/>
<path d="M23.25 9H30V11.25H14.25V9H16.5V6.75H21V4.5H14.25V2.25H16.5V0H27.75V2.25H30V4.5H27.75V6.75H23.25V9ZM23.25 4.5V2.25H21V4.5H23.25Z" fill="#BC5651"/>
<path d="M14.25 13.5H5.25V11.25H12V0H14.25V13.5ZM3 6.75V4.5H5.25V6.75H3Z" fill="#36363F"/>
<path d="M30 9H23.25V6.75H27.75V4.5H30V2.25H27.75V0H30V2.25H32.25V6.75H30V9H32.25V13.5H14.25V11.25H30V9ZM14.25 4.5H21V6.75H14.25V4.5ZM21 4.5V2.25H23.25V4.5H21Z" fill="#36363F"/>
<path d="M12 11.25H5.25V4.5H3V2.25H5.25V0H12V11.25Z" fill="#BC5651"/>
<path d="M23.25 9H30V11.25H14.25V9H16.5V6.75H21V4.5H14.25V2.25H16.5V0H27.75V2.25H30V4.5H27.75V6.75H23.25V9ZM23.25 4.5V2.25H21V4.5H23.25Z" fill="#BC5651"/>
</g>
<defs>
<clipPath id="clip0_23_995">
<rect width="36" height="13" fill="white"/>
</clipPath>
</defs>
</svg>
