<svg width="36" height="13" viewBox="0 0 36 13" fill="none" xmlns="http://www.w3.org/2000/svg">
<g clip-path="url(#clip0_23_962)">
<path d="M5.25 11.25H3V9H5.25V11.25H16.5V9H18.75V2.25H16.5V0H18.75V2.25H21V11.25H18.75V13.5H5.25V11.25ZM9.75 6.75H3V4.5H9.75V6.75H12V9H9.75V6.75ZM9.75 4.5V2.25H12V4.5H9.75Z" fill="#36363F"/>
<path d="M32.25 13.5H23.25V11.25H30V0H32.25V13.5ZM21 6.75V4.5H23.25V6.75H21Z" fill="#36363F"/>
<path d="M12 9V6.75H9.75V4.5H3V2.25H5.25V0H16.5V2.25H18.75V9H16.5V11.25H5.25V9H3V6.75H9.75V9H12ZM12 4.5V2.25H9.75V4.5H12Z" fill="#BC5651"/>
<path d="M30 11.25H23.25V4.5H21V2.25H23.25V0H30V11.25Z" fill="#BC5651"/>
<path d="M5.25 11.25H3V9H5.25V11.25H16.5V9H18.75V2.25H16.5V0H18.75V2.25H21V11.25H18.75V13.5H5.25V11.25ZM9.75 6.75H3V4.5H9.75V6.75H12V9H9.75V6.75ZM9.75 4.5V2.25H12V4.5H9.75Z" fill="#36363F"/>
<path d="M32.25 13.5H23.25V11.25H30V0H32.25V13.5ZM21 6.75V4.5H23.25V6.75H21Z" fill="#36363F"/>
<path d="M12 9V6.75H9.75V4.5H3V2.25H5.25V0H16.5V2.25H18.75V9H16.5V11.25H5.25V9H3V6.75H9.75V9H12ZM12 4.5V2.25H9.75V4.5H12Z" fill="#BC5651"/>
<path d="M30 11.25H23.25V4.5H21V2.25H23.25V0H30V11.25Z" fill="#BC5651"/>
</g>
<defs>
<clipPath id="clip0_23_962">
<rect width="36" height="13" fill="white"/>
</clipPath>
</defs>
</svg>
