<svg width="36" height="13" viewBox="0 0 36 13" fill="none" xmlns="http://www.w3.org/2000/svg">
<g clip-path="url(#clip0_23_799)">
<path d="M18.25 13.5H9.25V11.25H16V0H18.25V13.5ZM7 6.75V4.5H9.25V6.75H7Z" fill="#36363F"/>
<path d="M29.5 13.5H20.5V11.25H27.25V0H29.5V13.5ZM18.25 6.75V4.5H20.5V6.75H18.25Z" fill="#36363F"/>
<path d="M16 11.25H9.25V4.5H7V2.25H9.25V0H16V11.25Z" fill="#6D6E76"/>
<path d="M27.25 11.25H20.5V4.5H18.25V2.25H20.5V0H27.25V11.25Z" fill="#6D6E76"/>
<path d="M18.25 13.5H9.25V11.25H16V0H18.25V13.5ZM7 6.75V4.5H9.25V6.75H7Z" fill="#36363F"/>
<path d="M29.5 13.5H20.5V11.25H27.25V0H29.5V13.5ZM18.25 6.75V4.5H20.5V6.75H18.25Z" fill="#36363F"/>
<path d="M16 11.25H9.25V4.5H7V2.25H9.25V0H16V11.25Z" fill="#6D6E76"/>
<path d="M27.25 11.25H20.5V4.5H18.25V2.25H20.5V0H27.25V11.25Z" fill="#6D6E76"/>
</g>
<defs>
<clipPath id="clip0_23_799">
<rect width="36" height="13" fill="white"/>
</clipPath>
</defs>
</svg>
