<svg width="36" height="13" viewBox="0 0 36 13" fill="none" xmlns="http://www.w3.org/2000/svg">
<g clip-path="url(#clip0_23_827)">
<path d="M14.25 13.5H5.25V11.25H12V0H14.25V13.5ZM3 6.75V4.5H5.25V6.75H3Z" fill="#36363F"/>
<path d="M30 6.75H27.75V4.5H21V2.25H30V0H32.25V4.5H30V6.75H32.25V11.25H30V13.5H14.25V11.25H27.75V9H30V6.75ZM14.25 6.75H23.25V9H14.25V6.75Z" fill="#36363F"/>
<path d="M12 11.25H5.25V4.5H3V2.25H5.25V0H12V11.25Z" fill="#6D6E76"/>
<path d="M27.75 11.25H14.25V9H23.25V6.75H14.25V0H30V2.25H21V4.5H27.75V6.75H30V9H27.75V11.25Z" fill="#6D6E76"/>
<path d="M14.25 13.5H5.25V11.25H12V0H14.25V13.5ZM3 6.75V4.5H5.25V6.75H3Z" fill="#36363F"/>
<path d="M30 6.75H27.75V4.5H21V2.25H30V0H32.25V4.5H30V6.75H32.25V11.25H30V13.5H14.25V11.25H27.75V9H30V6.75ZM14.25 6.75H23.25V9H14.25V6.75Z" fill="#36363F"/>
<path d="M12 11.25H5.25V4.5H3V2.25H5.25V0H12V11.25Z" fill="#6D6E76"/>
<path d="M27.75 11.25H14.25V9H23.25V6.75H14.25V0H30V2.25H21V4.5H27.75V6.75H30V9H27.75V11.25Z" fill="#6D6E76"/>
</g>
<defs>
<clipPath id="clip0_23_827">
<rect width="36" height="13" fill="white"/>
</clipPath>
</defs>
</svg>
