<svg width="36" height="13" viewBox="0 0 36 13" fill="none" xmlns="http://www.w3.org/2000/svg">
<g clip-path="url(#clip0_23_836)">
<path d="M14.25 13.5H5.25V11.25H12V0H14.25V13.5ZM3 6.75V4.5H5.25V6.75H3Z" fill="#36363F"/>
<path d="M16.5 11.25H14.25V9H16.5V11.25H27.75V9H30V2.25H27.75V0H30V2.25H32.25V11.25H30V13.5H16.5V11.25ZM21 9V6.75H23.25V9H21ZM21 4.5V2.25H23.25V4.5H21Z" fill="#36363F"/>
<path d="M12 11.25H5.25V4.5H3V2.25H5.25V0H12V11.25Z" fill="#6D6E76"/>
<path d="M27.75 11.25H16.5V9H14.25V2.25H16.5V0H27.75V2.25H30V9H27.75V11.25ZM23.25 4.5V2.25H21V4.5H23.25ZM23.25 9V6.75H21V9H23.25Z" fill="#6D6E76"/>
<path d="M14.25 13.5H5.25V11.25H12V0H14.25V13.5ZM3 6.75V4.5H5.25V6.75H3Z" fill="#36363F"/>
<path d="M16.5 11.25H14.25V9H16.5V11.25H27.75V9H30V2.25H27.75V0H30V2.25H32.25V11.25H30V13.5H16.5V11.25ZM21 9V6.75H23.25V9H21ZM21 4.5V2.25H23.25V4.5H21Z" fill="#36363F"/>
<path d="M12 11.25H5.25V4.5H3V2.25H5.25V0H12V11.25Z" fill="#6D6E76"/>
<path d="M27.75 11.25H16.5V9H14.25V2.25H16.5V0H27.75V2.25H30V9H27.75V11.25ZM23.25 4.5V2.25H21V4.5H23.25ZM23.25 9V6.75H21V9H23.25Z" fill="#6D6E76"/>
</g>
<defs>
<clipPath id="clip0_23_836">
<rect width="36" height="13" fill="white"/>
</clipPath>
</defs>
</svg>
