<svg width="36" height="13" viewBox="0 0 36 13" fill="none" xmlns="http://www.w3.org/2000/svg">
<g clip-path="url(#clip0_23_706)">
<path d="M15.75 11.25H9V9H15.75V11.25H22.5V9H24.75V6.75H22.5V0H24.75V6.75H27V11.25H24.75V13.5H15.75V11.25ZM13.5 6.75V4.5H15.75V6.75H13.5Z" fill="#36363F"/>
<path d="M15.75 6.75V4.5H13.5V2.25H15.75V0H22.5V6.75H24.75V9H22.5V11.25H15.75V9H9V6.75H11.25V4.5H13.5V6.75H15.75Z" fill="#6D6E76"/>
<path d="M15.75 11.25H9V9H15.75V11.25H22.5V9H24.75V6.75H22.5V0H24.75V6.75H27V11.25H24.75V13.5H15.75V11.25ZM13.5 6.75V4.5H15.75V6.75H13.5Z" fill="#36363F"/>
<path d="M15.75 6.75V4.5H13.5V2.25H15.75V0H22.5V6.75H24.75V9H22.5V11.25H15.75V9H9V6.75H11.25V4.5H13.5V6.75H15.75Z" fill="#6D6E76"/>
<path d="M15.75 11.25H9V9H15.75V11.25H22.5V9H24.75V6.75H22.5V0H24.75V6.75H27V11.25H24.75V13.5H15.75V11.25ZM13.5 6.75V4.5H15.75V6.75H13.5Z" fill="#36363F"/>
<path d="M15.75 6.75V4.5H13.5V2.25H15.75V0H22.5V6.75H24.75V9H22.5V11.25H15.75V9H9V6.75H11.25V4.5H13.5V6.75H15.75Z" fill="#6D6E76"/>
<path d="M15.75 11.25H9V9H15.75V11.25H22.5V9H24.75V6.75H22.5V0H24.75V6.75H27V11.25H24.75V13.5H15.75V11.25ZM13.5 6.75V4.5H15.75V6.75H13.5Z" fill="#36363F"/>
<path d="M15.75 6.75V4.5H13.5V2.25H15.75V0H22.5V6.75H24.75V9H22.5V11.25H15.75V9H9V6.75H11.25V4.5H13.5V6.75H15.75Z" fill="#6D6E76"/>
</g>
<defs>
<clipPath id="clip0_23_706">
<rect width="36" height="13" fill="white"/>
</clipPath>
</defs>
</svg>
