<svg width="36" height="36" viewBox="0 0 36 36" fill="none" xmlns="http://www.w3.org/2000/svg">
<path fill-rule="evenodd" clip-rule="evenodd" d="M15.4286 30.8571H10.2857V36H0V28.2857H5.14286V23.1429H0L3.62406e-06 0L3.85715 3.37202e-07L3.85715 5.14286L9 5.14286L9 2.67038e-06H15.4286L15.4286 10.2857H20.5714L20.5714 2.67038e-06H25.7143V5.14286L30.8571 5.14286V2.67038e-06H36L36 23.1429H30.8571V28.2857H36V36H25.7143V30.8571H20.5714V25.7143H15.4286V30.8571ZM30.8571 19.2857H25.7143L25.7143 14.1429H30.8571V19.2857ZM5.14286 19.2857L10.2857 19.2857L10.2857 14.1429L5.14286 14.1429L5.14286 19.2857Z" fill="#6D6E76"/>
</svg>
