<svg width="36" height="36" viewBox="0 0 36 36" fill="none" xmlns="http://www.w3.org/2000/svg">
<path fill-rule="evenodd" clip-rule="evenodd" d="M15.4286 0H0V5.14286H5.14286V10.2857H0V36H5.14286V30.8571H10.2857V36H15.4286V30.8571H20.5714V36H25.7143V30.8571H30.8571V36H36V10.2857H30.8571V5.14286H36V0H20.5714V5.14286H25.7143V10.2857H20.5714H15.4286H10.2857V5.14286H15.4286V0ZM25.7143 30.8571L20.5714 30.8571V25.7143H25.7143V30.8571ZM15.4286 30.8571L10.2857 30.8571V25.7143H15.4286V30.8571ZM10.2857 15.4286H5.14286V20.5714H10.2857V15.4286ZM25.7143 15.4286H30.8571V20.5714H25.7143V15.4286Z" fill="#6D6E76"/>
</svg>
