<svg width="36" height="36" viewBox="0 0 36 36" fill="none" xmlns="http://www.w3.org/2000/svg">
<path fill-rule="evenodd" clip-rule="evenodd" d="M20.5714 0H36V10.2857H30.8571V15.4286V20.5714H36V30.8571H30.8571L30.8571 25.7143H25.7143V30.8571H20.5714V25.7143H15.4286V30.8571H10.2857V25.7143H5.14286V30.8571H0V20.5714H5.14286V15.4286V10.2857H0V0H15.4286V5.14286V10.2857H20.5714V5.14286V0ZM5.14286 30.8571H10.2857V36H5.14286V30.8571ZM25.7143 30.8571H30.8571V36H25.7143V30.8571ZM25.7143 15.4286H20.5714V20.5714H25.7143V15.4286ZM10.2857 15.4286H15.4286V20.5714H10.2857V15.4286Z" fill="#6D6E76"/>
</svg>
