<svg width="36" height="13" viewBox="0 0 36 13" fill="none" xmlns="http://www.w3.org/2000/svg">
<g clip-path="url(#clip0_23_1001)">
<path d="M14.25 13.5H5.25V11.25H12V0H14.25V13.5ZM3 6.75V4.5H5.25V6.75H3Z" fill="#36363F"/>
<path d="M21 11.25H14.25V9H21V11.25H27.75V9H30V6.75H27.75V0H30V6.75H32.25V11.25H30V13.5H21V11.25ZM18.75 6.75V4.5H21V6.75H18.75Z" fill="#36363F"/>
<path d="M12 11.25H5.25V4.5H3V2.25H5.25V0H12V11.25Z" fill="#BC5651"/>
<path d="M21 6.75V4.5H18.75V2.25H21V0H27.75V6.75H30V9H27.75V11.25H21V9H14.25V6.75H16.5V4.5H18.75V6.75H21Z" fill="#BC5651"/>
<path d="M14.25 13.5H5.25V11.25H12V0H14.25V13.5ZM3 6.75V4.5H5.25V6.75H3Z" fill="#36363F"/>
<path d="M21 11.25H14.25V9H21V11.25H27.75V9H30V6.75H27.75V0H30V6.75H32.25V11.25H30V13.5H21V11.25ZM18.75 6.75V4.5H21V6.75H18.75Z" fill="#36363F"/>
<path d="M12 11.25H5.25V4.5H3V2.25H5.25V0H12V11.25Z" fill="#BC5651"/>
<path d="M21 6.75V4.5H18.75V2.25H21V0H27.75V6.75H30V9H27.75V11.25H21V9H14.25V6.75H16.5V4.5H18.75V6.75H21Z" fill="#BC5651"/>
</g>
<defs>
<clipPath id="clip0_23_1001">
<rect width="36" height="13" fill="white"/>
</clipPath>
</defs>
</svg>
