<svg width="36" height="13" viewBox="0 0 36 13" fill="none" xmlns="http://www.w3.org/2000/svg">
<g clip-path="url(#clip0_23_1022)">
<path d="M24.75 9H18V6.75H22.5V4.5H24.75V2.25H22.5V0H24.75V2.25H27V6.75H24.75V9H27V13.5H9V11.25H24.75V9ZM9 4.5H15.75V6.75H9V4.5ZM15.75 4.5V2.25H18V4.5H15.75Z" fill="#36363F"/>
<path d="M18 9H24.75V11.25H9V9H11.25V6.75H15.75V4.5H9V2.25H11.25V0H22.5V2.25H24.75V4.5H22.5V6.75H18V9ZM18 4.5V2.25H15.75V4.5H18Z" fill="#BC5651"/>
</g>
<defs>
<clipPath id="clip0_23_1022">
<rect width="36" height="13" fill="white"/>
</clipPath>
</defs>
</svg>
