<svg width="36" height="13" viewBox="0 0 36 13" fill="none" xmlns="http://www.w3.org/2000/svg">
<g clip-path="url(#clip0_23_983)">
<path d="M15.75 9H9V6.75H13.5V4.5H15.75V2.25H13.5V0H15.75V2.25H18V6.75H15.75V9H18V13.5H0V11.25H15.75V9ZM0 4.5H6.75V6.75H0V4.5ZM6.75 4.5V2.25H9V4.5H6.75Z" fill="#36363F"/>
<path d="M31.5 13.5H22.5V11.25H29.25V4.5H31.5V2.25H33.75V0H36V4.5H33.75V6.75H31.5V13.5ZM18 2.25H27V4.5H18V2.25Z" fill="#36363F"/>
<path d="M9 9H15.75V11.25H0V9H2.25V6.75H6.75V4.5H0V2.25H2.25V0H13.5V2.25H15.75V4.5H13.5V6.75H9V9ZM9 4.5V2.25H6.75V4.5H9Z" fill="#BC5651"/>
<path d="M29.25 11.25H22.5V6.75H24.75V4.5H27V2.25H18V0H33.75V2.25H31.5V4.5H29.25V11.25Z" fill="#BC5651"/>
<path d="M15.75 9H9V6.75H13.5V4.5H15.75V2.25H13.5V0H15.75V2.25H18V6.75H15.75V9H18V13.5H0V11.25H15.75V9ZM0 4.5H6.75V6.75H0V4.5ZM6.75 4.5V2.25H9V4.5H6.75Z" fill="#36363F"/>
<path d="M31.5 13.5H22.5V11.25H29.25V4.5H31.5V2.25H33.75V0H36V4.5H33.75V6.75H31.5V13.5ZM18 2.25H27V4.5H18V2.25Z" fill="#36363F"/>
<path d="M9 9H15.75V11.25H0V9H2.25V6.75H6.75V4.5H0V2.25H2.25V0H13.5V2.25H15.75V4.5H13.5V6.75H9V9ZM9 4.5V2.25H6.75V4.5H9Z" fill="#BC5651"/>
<path d="M29.25 11.25H22.5V6.75H24.75V4.5H27V2.25H18V0H33.75V2.25H31.5V4.5H29.25V11.25Z" fill="#BC5651"/>
</g>
<defs>
<clipPath id="clip0_23_983">
<rect width="36" height="13" fill="white"/>
</clipPath>
</defs>
</svg>
