<svg width="36" height="13" viewBox="0 0 36 13" fill="none" xmlns="http://www.w3.org/2000/svg">
<g clip-path="url(#clip0_23_1035)">
<path d="M24.75 6.75H22.5V4.5H15.75V2.25H24.75V0H27V4.5H24.75V6.75H27V11.25H24.75V13.5H9V11.25H22.5V9H24.75V6.75ZM9 6.75H18V9H9V6.75Z" fill="#36363F"/>
<path d="M22.5 11.25H9V9H18V6.75H9V0H24.75V2.25H15.75V4.5H22.5V6.75H24.75V9H22.5V11.25Z" fill="#BC5651"/>
<path d="M24.75 6.75H22.5V4.5H15.75V2.25H24.75V0H27V4.5H24.75V6.75H27V11.25H24.75V13.5H9V11.25H22.5V9H24.75V6.75ZM9 6.75H18V9H9V6.75Z" fill="#36363F"/>
<path d="M22.5 11.25H9V9H18V6.75H9V0H24.75V2.25H15.75V4.5H22.5V6.75H24.75V9H22.5V11.25Z" fill="#BC5651"/>
<path d="M24.75 6.75H22.5V4.5H15.75V2.25H24.75V0H27V4.5H24.75V6.75H27V11.25H24.75V13.5H9V11.25H22.5V9H24.75V6.75ZM9 6.75H18V9H9V6.75Z" fill="#36363F"/>
<path d="M22.5 11.25H9V9H18V6.75H9V0H24.75V2.25H15.75V4.5H22.5V6.75H24.75V9H22.5V11.25Z" fill="#BC5651"/>
<path d="M24.75 6.75H22.5V4.5H15.75V2.25H24.75V0H27V4.5H24.75V6.75H27V11.25H24.75V13.5H9V11.25H22.5V9H24.75V6.75ZM9 6.75H18V9H9V6.75Z" fill="#36363F"/>
<path d="M22.5 11.25H9V9H18V6.75H9V0H24.75V2.25H15.75V4.5H22.5V6.75H24.75V9H22.5V11.25Z" fill="#BC5651"/>
</g>
<defs>
<clipPath id="clip0_23_1035">
<rect width="36" height="13" fill="white"/>
</clipPath>
</defs>
</svg>
