<svg width="36" height="13" viewBox="0 0 36 13" fill="none" xmlns="http://www.w3.org/2000/svg">
<g clip-path="url(#clip0_23_1045)">
<path d="M22.5 13.5H13.5V11.25H20.25V4.5H22.5V2.25H24.75V0H27V4.5H24.75V6.75H22.5V13.5ZM9 2.25H18V4.5H9V2.25Z" fill="#36363F"/>
<path d="M20.25 11.25H13.5V6.75H15.75V4.5H18V2.25H9V0H24.75V2.25H22.5V4.5H20.25V11.25Z" fill="#BC5651"/>
<path d="M22.5 13.5H13.5V11.25H20.25V4.5H22.5V2.25H24.75V0H27V4.5H24.75V6.75H22.5V13.5ZM9 2.25H18V4.5H9V2.25Z" fill="#36363F"/>
<path d="M20.25 11.25H13.5V6.75H15.75V4.5H18V2.25H9V0H24.75V2.25H22.5V4.5H20.25V11.25Z" fill="#BC5651"/>
<path d="M22.5 13.5H13.5V11.25H20.25V4.5H22.5V2.25H24.75V0H27V4.5H24.75V6.75H22.5V13.5ZM9 2.25H18V4.5H9V2.25Z" fill="#36363F"/>
<path d="M20.25 11.25H13.5V6.75H15.75V4.5H18V2.25H9V0H24.75V2.25H22.5V4.5H20.25V11.25Z" fill="#BC5651"/>
<path d="M22.5 13.5H13.5V11.25H20.25V4.5H22.5V2.25H24.75V0H27V4.5H24.75V6.75H22.5V13.5ZM9 2.25H18V4.5H9V2.25Z" fill="#36363F"/>
<path d="M20.25 11.25H13.5V6.75H15.75V4.5H18V2.25H9V0H24.75V2.25H22.5V4.5H20.25V11.25Z" fill="#BC5651"/>
</g>
<defs>
<clipPath id="clip0_23_1045">
<rect width="36" height="13" fill="white"/>
</clipPath>
</defs>
</svg>
