<svg width="36" height="13" viewBox="0 0 36 13" fill="none" xmlns="http://www.w3.org/2000/svg">
<g clip-path="url(#clip0_23_696)">
<path d="M11.25 11.25H9V9H11.25V11.25H22.5V9H24.75V2.25H22.5V0H24.75V2.25H27V11.25H24.75V13.5H11.25V11.25ZM15.75 6.75H9V4.5H15.75V6.75H18V9H15.75V6.75ZM15.75 4.5V2.25H18V4.5H15.75Z" fill="#36363F"/>
<path d="M18 9V6.75H15.75V4.5H9V2.25H11.25V0H22.5V2.25H24.75V9H22.5V11.25H11.25V9H9V6.75H15.75V9H18ZM18 4.5V2.25H15.75V4.5H18Z" fill="#6D6E76"/>
<path d="M11.25 11.25H9V9H11.25V11.25H22.5V9H24.75V2.25H22.5V0H24.75V2.25H27V11.25H24.75V13.5H11.25V11.25ZM15.75 6.75H9V4.5H15.75V6.75H18V9H15.75V6.75ZM15.75 4.5V2.25H18V4.5H15.75Z" fill="#36363F"/>
<path d="M18 9V6.75H15.75V4.5H9V2.25H11.25V0H22.5V2.25H24.75V9H22.5V11.25H11.25V9H9V6.75H15.75V9H18ZM18 4.5V2.25H15.75V4.5H18Z" fill="#6D6E76"/>
</g>
<defs>
<clipPath id="clip0_23_696">
<rect width="36" height="13" fill="white"/>
</clipPath>
</defs>
</svg>
