<svg width="36" height="13" viewBox="0 0 36 13" fill="none" xmlns="http://www.w3.org/2000/svg">
<g clip-path="url(#clip0_23_732)">
<path d="M11.25 11.25H9V9H11.25V11.25H22.5V9H24.75V6.75H22.5V4.5H15.75V2.25H22.5V0H24.75V6.75H27V11.25H24.75V13.5H11.25V11.25ZM15.75 9V6.75H18V9H15.75Z" fill="#36363F"/>
<path d="M22.5 11.25H11.25V9H9V2.25H11.25V0H22.5V2.25H15.75V4.5H22.5V6.75H24.75V9H22.5V11.25ZM18 9V6.75H15.75V9H18Z" fill="#6D6E76"/>
<path d="M11.25 11.25H9V9H11.25V11.25H22.5V9H24.75V6.75H22.5V4.5H15.75V2.25H22.5V0H24.75V6.75H27V11.25H24.75V13.5H11.25V11.25ZM15.75 9V6.75H18V9H15.75Z" fill="#36363F"/>
<path d="M22.5 11.25H11.25V9H9V2.25H11.25V0H22.5V2.25H15.75V4.5H22.5V6.75H24.75V9H22.5V11.25ZM18 9V6.75H15.75V9H18Z" fill="#6D6E76"/>
<path d="M11.25 11.25H9V9H11.25V11.25H22.5V9H24.75V6.75H22.5V4.5H15.75V2.25H22.5V0H24.75V6.75H27V11.25H24.75V13.5H11.25V11.25ZM15.75 9V6.75H18V9H15.75Z" fill="#36363F"/>
<path d="M22.5 11.25H11.25V9H9V2.25H11.25V0H22.5V2.25H15.75V4.5H22.5V6.75H24.75V9H22.5V11.25ZM18 9V6.75H15.75V9H18Z" fill="#6D6E76"/>
<path d="M11.25 11.25H9V9H11.25V11.25H22.5V9H24.75V6.75H22.5V4.5H15.75V2.25H22.5V0H24.75V6.75H27V11.25H24.75V13.5H11.25V11.25ZM15.75 9V6.75H18V9H15.75Z" fill="#36363F"/>
<path d="M22.5 11.25H11.25V9H9V2.25H11.25V0H22.5V2.25H15.75V4.5H22.5V6.75H24.75V9H22.5V11.25ZM18 9V6.75H15.75V9H18Z" fill="#6D6E76"/>
</g>
<defs>
<clipPath id="clip0_23_732">
<rect width="36" height="13" fill="white"/>
</clipPath>
</defs>
</svg>
