<svg width="52" height="45" viewBox="0 0 52 45" fill="none" xmlns="http://www.w3.org/2000/svg">
<path d="M32.5 6.42857H22.75V12.8571H32.5V6.42857Z" fill="#4E4F57"/>
<path d="M6.5 9.64286H1.90735e-06V12.8571H6.5V9.64286Z" fill="#4E4F57"/>
<path d="M45.5 32.1429H39V35.3571H45.5V32.1429Z" fill="#4E4F57"/>
<path d="M9.75 0H13V3.21429H10.4V2.57143H9.75V0Z" fill="#4E4F57"/>
<path d="M19.5 6.42857H10.4V7.71429H9.75V12.8571H19.5V6.42857Z" fill="#4E4F57"/>
<path d="M29.25 16.0714H17.55V16.7143H16.9V16.0714H16.25V28.9286H28.6V28.2857H29.25V16.0714Z" fill="#4E4F57"/>
<path d="M35.75 32.1429H26V38.5714H35.1V37.9286H35.75V35.3571H35.1V34.7143H35.75V32.1429Z" fill="#4E4F57"/>
<path d="M29.25 41.7857H32.5V44.3571H31.85V45H29.25V41.7857Z" fill="#4E4F57"/>
<path d="M13 32.1429H18.85V32.7857H19.5V35.3571H13V32.1429Z" fill="#4E4F57"/>
<path d="M6.5 38.5714H16.25V45H6.5V39.8571H7.15V39.2143H6.5V38.5714Z" fill="#4E4F57"/>
<path d="M7.15 16.0714H13V28.9286H3.25V16.0714H6.5V16.7143H7.15V16.0714Z" fill="#4E4F57"/>
<path d="M7.15 32.1429H9.75V35.3571H8.45V36H7.8V35.3571H6.5V32.7857H7.15V32.1429Z" fill="#4E4F57"/>
<path fill-rule="evenodd" clip-rule="evenodd" d="M39 16.0714H48.75V22.5H39V16.0714ZM44.85 16.7143H45.5V17.3571H44.85V16.7143Z" fill="#4E4F57"/>
<path d="M32.5 16.0714H35.1V16.7143H35.75V22.5H32.5V16.0714Z" fill="#4E4F57"/>
<path d="M36.4 22.5H35.75V23.1429H36.4V22.5Z" fill="#D9D9D9"/>
<path fill-rule="evenodd" clip-rule="evenodd" d="M39 22.5H32.5V28.2857H33.15V28.9286H39V22.5ZM36.4 27H35.75V28.2857H36.4V27ZM37.05 24.4286H36.4V25.0714H37.05V24.4286Z" fill="#4E4F57"/>
<path d="M49.4 22.5H52V28.9286H42.25V28.2857H41.6V27H42.25V26.3571H41.6V25.7143H42.25V25.0714H42.9V24.4286H42.25V22.5H48.75V23.1429H49.4V22.5Z" fill="#4E4F57"/>
<path d="M41.6 9.64286H36.4V10.2857H35.75V12.8571H42.25V10.2857H41.6V9.64286Z" fill="#4E4F57"/>
</svg>
