<svg width="44" height="44" viewBox="0 0 44 44" fill="none" xmlns="http://www.w3.org/2000/svg">
<g clip-path="url(#clip0_44_2170)">
<rect x="3" y="18" width="8" height="3" transform="rotate(90 3 18)" fill="#4E4F57"/>
<rect x="3" y="29" width="6" height="3" transform="rotate(90 3 29)" fill="#4E4F57"/>
<rect x="3" y="9" width="6" height="3" transform="rotate(90 3 9)" fill="#4E4F57"/>
<rect x="26" y="3" width="8" height="3" transform="rotate(-180 26 3)" fill="#4E4F57"/>
<rect x="26" y="44" width="8" height="3" transform="rotate(-180 26 44)" fill="#4E4F57"/>
<rect x="15" y="3" width="6" height="3" transform="rotate(-180 15 3)" fill="#4E4F57"/>
<rect x="15" y="44" width="6" height="3" transform="rotate(-180 15 44)" fill="#4E4F57"/>
<rect x="35" y="3" width="6" height="3" transform="rotate(-180 35 3)" fill="#4E4F57"/>
<rect x="35" y="44" width="6" height="3" transform="rotate(-180 35 44)" fill="#4E4F57"/>
<rect x="44" y="18" width="8" height="3" transform="rotate(90 44 18)" fill="#4E4F57"/>
<rect x="44" y="29" width="6" height="3" transform="rotate(90 44 29)" fill="#4E4F57"/>
<rect x="44" y="9" width="6" height="3" transform="rotate(90 44 9)" fill="#4E4F57"/>
<path fill-rule="evenodd" clip-rule="evenodd" d="M-1.19769e-07 3.26L0 6L3 6L3 3L6 3L6 -2.62268e-07L3.26 -1.42499e-07C2.08323 -9.1061e-08 1.49485 -6.5342e-08 1.05029 0.239873C0.706875 0.425168 0.425168 0.706875 0.239873 1.05029C-1.96926e-07 1.49485 -1.71207e-07 2.08323 -1.19769e-07 3.26Z" fill="#4E4F57"/>
<path fill-rule="evenodd" clip-rule="evenodd" d="M3.26 44L6 44L6 41L3 41L3 38L1.00137e-06 38L7.61835e-07 40.74C6.58959e-07 41.9168 6.07521e-07 42.5051 0.239874 42.9497C0.425169 43.2931 0.706876 43.5748 1.05029 43.7601C1.49485 44 2.08323 44 3.26 44Z" fill="#4E4F57"/>
<path fill-rule="evenodd" clip-rule="evenodd" d="M44 40.74L44 38L41 38L41 41L38 41L38 44L40.74 44C41.9168 44 42.5051 44 42.9497 43.7601C43.2931 43.5748 43.5748 43.2931 43.7601 42.9497C44 42.5051 44 41.9168 44 40.74Z" fill="#4E4F57"/>
<path fill-rule="evenodd" clip-rule="evenodd" d="M40.74 4.79077e-07L38 0L38 3L41 3L41 6L44 6L44 3.26C44 2.08323 44 1.49485 43.7601 1.05029C43.5748 0.706876 43.2931 0.425169 42.9497 0.239874C42.5051 7.87705e-07 41.9168 6.84829e-07 40.74 4.79077e-07Z" fill="#4E4F57"/>
</g>
<defs>
<clipPath id="clip0_44_2170">
<rect width="44" height="44" fill="white"/>
</clipPath>
</defs>
</svg>
