<svg width="495" height="92" viewBox="0 0 495 92" fill="none" xmlns="http://www.w3.org/2000/svg">
<path d="M71 62H41V56H35V38H41V32H71V38H77V44H59V38H53V56H59V50H77V56H71V62ZM125 62H107V56H101V62H83V32H119V38H125V50H119V56H125V62ZM107 50V38H101V50H107ZM149 56H173V62H131V32H173V38H149V44H167V50H149V56ZM221 62H203V56H197V62H179V38H185V32H215V38H221V62ZM203 50V38H197V50H203ZM263 62H233V56H239V38H227V32H269V38H257V56H263V62ZM311 62H281V56H275V32H293V56H299V32H317V56H311V62ZM365 62H347V56H341V62H323V32H359V38H365V50H359V56H365V62ZM347 50V38H341V50H347ZM389 56H413V62H371V32H413V38H389V44H407V50H389V56ZM455 62H419V56H443V50H425V44H419V38H425V32H461V38H437V44H455V50H461V56H455V62Z" fill="#FFFEFF"/>
<path d="M77 38H71V32H77V38H83V62H77V68H41V62H35V56H41V62H71V56H77V50H59V56H53V38H59V44H77V38Z" fill="#4E4F57"/>
<path d="M125 38H119V32H125V38H131V68H83V62H101V56H107V62H125V56H119V50H125V38ZM101 50V38H107V50H101Z" fill="#4E4F57"/>
<path d="M173 56H149V50H167V44H149V38H173V32H179V44H173V56H179V68H131V62H173V56Z" fill="#4E4F57"/>
<path d="M221 38H215V32H221V38H227V68H179V62H197V56H203V62H221V38ZM197 50V38H203V50H197Z" fill="#4E4F57"/>
<path d="M263 56H257V38H269V32H275V44H263V56H269V68H233V62H263V56ZM227 38H239V44H227V38Z" fill="#4E4F57"/>
<path d="M281 62H275V56H281V62H311V56H317V32H323V62H317V68H281V62ZM293 56V32H299V56H293Z" fill="#4E4F57"/>
<path d="M365 38H359V32H365V38H371V68H323V62H341V56H347V62H365V56H359V50H365V38ZM341 50V38H347V50H341Z" fill="#4E4F57"/>
<path d="M413 56H389V50H407V44H389V38H413V32H419V44H413V56H419V68H371V62H413V56Z" fill="#4E4F57"/>
<path d="M461 50H455V44H437V38H461V32H467V44H461V50H467V62H461V68H419V62H455V56H461V50ZM425 50H419V44H425V50H443V56H425V50Z" fill="#4E4F57"/>
<path d="M0 87L4 87L4 81H0V87Z" fill="#4E4F57"/>
<path d="M8 87H28V92L468 92V87H487V81H461V86L34 86V81H8V87Z" fill="#4E4F57"/>
<path d="M495 87L491 87V81H495V87Z" fill="#4E4F57"/>
</svg>
