<svg width="186" height="27" viewBox="0 0 186 27" fill="none" xmlns="http://www.w3.org/2000/svg">
<path d="M15.5 12.5H2.58333V10H0V2.5H2.58333V0H15.5V2.5H18.0833V5H10.3333V2.5H7.75V10H10.3333V7.5H18.0833V10H15.5V12.5Z" fill="#4E4F57"/>
<path d="M38.75 12.5H31V10H28.4167V12.5H20.6667V0H36.1667V2.5H38.75V7.5H36.1667V10H38.75V12.5ZM31 7.5V2.5H28.4167V7.5H31Z" fill="#4E4F57"/>
<path d="M49.0833 10H59.4167V12.5H41.3333V0H59.4167V2.5H49.0833V5H56.8333V7.5H49.0833V10Z" fill="#4E4F57"/>
<path d="M80.0833 12.5H72.3333V10H69.75V12.5H62V2.5H64.5833V0H77.5V2.5H80.0833V12.5ZM72.3333 7.5V2.5H69.75V7.5H72.3333Z" fill="#4E4F57"/>
<path d="M98.1667 12.5H85.25V10H87.8333V2.5H82.6667V0H100.75V2.5H95.5833V10H98.1667V12.5Z" fill="#4E4F57"/>
<path d="M118.833 12.5H105.917V10H103.333V0H111.083V10H113.667V0H121.417V10H118.833V12.5Z" fill="#4E4F57"/>
<path d="M142.083 12.5H134.333V10H131.75V12.5H124V0H139.5V2.5H142.083V7.5H139.5V10H142.083V12.5ZM134.333 7.5V2.5H131.75V7.5H134.333Z" fill="#4E4F57"/>
<path d="M152.417 10H162.75V12.5H144.667V0H162.75V2.5H152.417V5H160.167V7.5H152.417V10Z" fill="#4E4F57"/>
<path d="M180.833 12.5H165.333V10H175.667V7.5H167.917V5H165.333V2.5H167.917V0H183.417V2.5H173.083V5H180.833V7.5H183.417V10H180.833V12.5Z" fill="#4E4F57"/>
<path d="M18.0833 2.5H15.5V0H18.0833V2.5H20.6667V12.5H18.0833V15H2.58333V12.5H0V10H2.58333V12.5H15.5V10H18.0833V7.5H10.3333V10H7.75V2.5H10.3333V5H18.0833V2.5Z" fill="#36363F"/>
<path d="M38.75 2.5H36.1667V0H38.75V2.5H41.3333V15H20.6667V12.5H28.4167V10H31V12.5H38.75V10H36.1667V7.5H38.75V2.5ZM28.4167 7.5V2.5H31V7.5H28.4167Z" fill="#36363F"/>
<path d="M59.4167 10H49.0833V7.5H56.8333V5H49.0833V2.5H59.4167V0H62V5H59.4167V10H62V15H41.3333V12.5H59.4167V10Z" fill="#36363F"/>
<path d="M80.0833 2.5H77.5V0H80.0833V2.5H82.6667V15H62V12.5H69.75V10H72.3333V12.5H80.0833V2.5ZM69.75 7.5V2.5H72.3333V7.5H69.75Z" fill="#36363F"/>
<path d="M98.1667 10H95.5833V2.5H100.75V0H103.333V5H98.1667V10H100.75V15H85.25V12.5H98.1667V10ZM82.6667 2.5H87.8333V5H82.6667V2.5Z" fill="#36363F"/>
<path d="M105.917 12.5H103.333V10H105.917V12.5H118.833V10H121.417V0H124V12.5H121.417V15H105.917V12.5ZM111.083 10V0H113.667V10H111.083Z" fill="#36363F"/>
<path d="M142.083 2.5H139.5V0H142.083V2.5H144.667V15H124V12.5H131.75V10H134.333V12.5H142.083V10H139.5V7.5H142.083V2.5ZM131.75 7.5V2.5H134.333V7.5H131.75Z" fill="#36363F"/>
<path d="M162.75 10H152.417V7.5H160.167V5H152.417V2.5H162.75V0H165.333V5H162.75V10H165.333V15H144.667V12.5H162.75V10Z" fill="#36363F"/>
<path d="M183.417 7.5H180.833V5H173.083V2.5H183.417V0H186V5H183.417V7.5H186V12.5H183.417V15H165.333V12.5H180.833V10H183.417V7.5ZM167.917 7.5H165.333V5H167.917V7.5H175.667V10H167.917V7.5Z" fill="#36363F"/>
<rect x="21" y="25" width="144" height="2" fill="#36363F"/>
<rect x="8" y="25" width="10" height="2" fill="#36363F"/>
<rect y="25" width="2" height="2" fill="#36363F"/>
<rect width="10" height="2" transform="matrix(-1 0 0 1 178 25)" fill="#36363F"/>
<rect width="2" height="2" transform="matrix(-1 0 0 1 186 25)" fill="#36363F"/>
</svg>
