<svg width="152" height="41" viewBox="0 0 152 41" fill="none" xmlns="http://www.w3.org/2000/svg">
<rect x="9.44775" y="37.7905" width="139.353" height="2.36192" fill="#36363F"/>
<rect x="148.801" y="35.4287" width="2.36192" height="2.36192" fill="#36363F"/>
<path d="M0 0H2.36192V2.36192H0V0Z" fill="#53545E"/>
<path fill-rule="evenodd" clip-rule="evenodd" d="M4.72385 2.36192H2.36192V4.72385H0V7.08577H2.36192V9.44769H0V11.8096H2.36192V14.1715H0V16.5335H2.36192V18.8954H0V21.2573H2.36192V23.6192H0V25.9812H2.36192V28.3431H0V30.705H2.36192V33.0669H0V35.4288H2.36192V37.7908H4.72385V35.4288H7.08577V37.7908H148.801V35.4288H151.163V33H150.8V34H149.6V33H148.4V34H146V32H151.163V31H148.25V30H147V29H151.163V28H146V26H147.2V27H148.4V26H151.163V25H150V23H151.163V2.36192H148.801V0H11.8096V2.36192H9.44769V0H4.72385V2.36192ZM4.72385 4.72385H2.36192V7.08577H4.72385V9.44769H2.36192V11.8096H4.72385V14.1715H2.36192V16.5335H4.72385V18.8954H2.36192V21.2573H4.72385V23.6192H2.36192V25.9812H4.72385V28.3431H2.36192V30.705H4.72385V33.0669H2.36192V35.4288H4.72385V33.0669H7.08577V30.705H4.72385V28.3431H7.08577V25.9812H4.72385V23.6192H7.08577V21.2573H4.72385V18.8954H7.08577V16.5335H4.72385V14.1715H7.08577V11.8096H4.72385V9.44769H7.08577V7.08577H4.72385V4.72385ZM4.72385 4.72385V2.36192H7.08577V4.72385H4.72385ZM9.44769 4.72385H11.8096V7.08577H9.44769V4.72385ZM9.44769 9.44769H11.8096V11.8096H9.44769V9.44769ZM9.44769 14.1715H11.8096V16.5335H9.44769V14.1715ZM9.44769 18.8954H11.8096V21.2573H9.44769V18.8954ZM9.44769 23.6192H11.8096V25.9812H9.44769V23.6192ZM9.44769 28.3431H11.8096V30.705H9.44769V28.3431ZM9.44769 33.0669H11.8096V35.4288H9.44769V33.0669ZM143 29H146V31H143V29ZM141.25 32H140V34H145V32H142.5V33H141.25V32Z" fill="#53545E"/>
<path d="M34.3115 23.5082H30.5082V21.6066H26.7049V19.7049H24.8033V23.5082H21V14H24.8033V15.9016H28.6066V17.8033H30.5082V14H34.3115V23.5082Z" fill="#6D6E76"/>
<path d="M41.918 21.6066H49.5246V23.5082H36.2131V14H49.5246V15.9016H41.918V17.8033H47.623V19.7049H41.918V21.6066Z" fill="#6D6E76"/>
<path d="M62.8361 23.5082H59.0328V21.6066H57.1312V23.5082H53.3279V21.6066H51.4262V14H55.2295V17.8033H57.1312V15.9016H59.0328V17.8033H60.9344V14H64.7377V21.6066H62.8361V23.5082Z" fill="#6D6E76"/>
<path d="M87.5574 23.5082H78.0492V21.6066H76.1475V15.9016H78.0492V14H87.5574V15.9016H81.8525V21.6066H85.6557V19.7049H83.7541V17.8033H89.459V21.6066H87.5574V23.5082Z" fill="#6D6E76"/>
<path d="M104.672 23.5082H98.9672V21.6066H97.0656V23.5082H91.3607V15.9016H93.2623V14H102.77V15.9016H104.672V23.5082ZM98.9672 19.7049V15.9016H97.0656V19.7049H98.9672Z" fill="#6D6E76"/>
<path d="M112.279 21.6066V19.7049H110.377V23.5082H106.574V14H110.377V15.9016H112.279V17.8033H114.18V15.9016H116.082V14H119.885V23.5082H116.082V19.7049H114.18V21.6066H112.279Z" fill="#6D6E76"/>
<path d="M127.492 21.6066H135.098V23.5082H121.787V14H135.098V15.9016H127.492V17.8033H133.197V19.7049H127.492V21.6066Z" fill="#6D6E76"/>
<path d="M26.7049 25.4098H21V23.5082H24.8033V19.7049H26.7049V21.6066H30.5082V23.5082H34.3115V14H36.2131V25.4098H30.5082V23.5082H26.7049V25.4098ZM28.6066 17.8033V15.9016H30.5082V17.8033H28.6066ZM24.8033 15.9016V14H26.7049V15.9016H24.8033Z" fill="#42424C"/>
<path d="M49.5246 21.6066H41.918V19.7049H47.623V17.8033H41.918V15.9016H49.5246V14H51.4262V17.8033H49.5246V21.6066H51.4262V25.4098H36.2131V23.5082H49.5246V21.6066Z" fill="#42424C"/>
<path d="M53.3279 23.5082H51.4262V21.6066H53.3279V23.5082H57.1311V21.6066H59.0328V23.5082H62.8361V21.6066H64.7377V14H66.6393V23.5082H64.7377V25.4098H53.3279V23.5082ZM55.2295 17.8033V14H57.1311V17.8033H55.2295ZM59.0328 17.8033V15.9016H60.9344V17.8033H59.0328Z" fill="#42424C"/>
<path d="M78.0492 23.5082H76.1475V21.6066H78.0492V23.5082H87.5574V21.6066H89.459V17.8033H83.7541V19.7049H85.6557V21.6066H81.8525V15.9016H87.5574V14H89.459V15.9016H91.3607V23.5082H89.459V25.4098H78.0492V23.5082Z" fill="#42424C"/>
<path d="M104.672 15.9016H102.77V14H104.672V15.9016H106.574V25.4098H91.3607V23.5082H97.0656V21.6066H98.9672V23.5082H104.672V15.9016ZM97.0656 19.7049V15.9016H98.9672V19.7049H97.0656Z" fill="#42424C"/>
<path d="M112.279 25.4098H106.574V23.5082H110.377V19.7049H112.279V21.6066H114.18V19.7049H116.082V23.5082H119.885V14H121.787V25.4098H116.082V23.5082H112.279V25.4098ZM112.279 15.9016H110.377V14H112.279V15.9016H114.18V17.8033H112.279V15.9016Z" fill="#42424C"/>
<path d="M135.098 21.6066H127.492V19.7049H133.197V17.8033H127.492V15.9016H135.098V14H137V17.8033H135.098V21.6066H137V25.4098H121.787V23.5082H135.098V21.6066Z" fill="#42424C"/>
</svg>
