<svg width="256" height="64" viewBox="0 0 256 64" fill="none" xmlns="http://www.w3.org/2000/svg">
<path d="M169.821 27.2H173.041V33.6H169.821V27.2Z" fill="#FFFEFF"/>
<path fill-rule="evenodd" clip-rule="evenodd" d="M4 0H0V4H4V8H0V12H4V16H0V20H4V24H0V28H4V32H0V36H4V40H0V44H4V48H0V52H4V56H0V60H4V64H8V60H12V64H252V60H256V4H252V0H20V4H16V0H8V4H4V0ZM8 8H4V12H8V16H4V20H8V24H4V28H8V32H4V36H8V40H4V44H8V48H4V52H8V56H4V60H8V56H12V52H8V48H12V44H8V40H12V36H8V32H12V28H8V24H12V20H8V16H12V12H8V8ZM8 8V4H12V8H8ZM63.5436 40H57.1025V36.8H50.6615V33.6H47.441V40H41V24H47.441V27.2H53.8821V30.4H57.1025V24H63.5436V40ZM76.4257 36.8H89.3077V40H66.7642V24H89.3077V27.2H76.4257V30.4H86.0872V33.6H76.4257V36.8ZM105.41 40H111.851V36.8H115.072V24H108.631V30.4H105.41V27.2H102.19V30.4H98.9692V24H92.5282V36.8H95.7488V40H102.19V36.8H105.41V40ZM153.718 40H137.615V36.8H134.395V27.2H137.615V24H153.718V27.2H144.056V36.8H150.497V33.6H147.277V30.4H156.938V36.8H153.718V40ZM173.041 40H182.703V27.2H179.482V24H163.38V27.2H160.159V40H169.821V36.8H173.041V40ZM195.585 36.8V33.6H192.364V40H185.923V24H192.364V27.2H195.585V30.4H198.805V27.2H202.026V24H208.467V40H202.026V33.6H198.805V36.8H195.585ZM234.231 36.8H221.349V33.6H231.01V30.4H221.349V27.2H234.231V24H211.687V40H234.231V36.8ZM20 8H16V12H20V8ZM20 16H16V20H20V16ZM20 24H16V28H20V24ZM20 32H16V36H20V32ZM20 40H16V44H20V40ZM20 48H16V52H20V48ZM20 56H16V60H20V56Z" fill="#FFFEFF"/>
</svg>
