<svg width="36" height="36" viewBox="0 0 36 36" fill="none" xmlns="http://www.w3.org/2000/svg">
<rect x="1.5" y="1.5" width="32.77" height="32.77" stroke="#6D6E76" stroke-width="3"/>
<rect x="30" y="3" width="3" height="3" fill="#6D6E76"/>
<rect x="3.00098" y="3.00049" width="3.00007" height="3.00007" fill="white"/>
<rect width="3.00007" height="3.00007" fill="white"/>
<rect y="3.00049" width="3.00007" height="3.00007" fill="white"/>
<rect x="3.00098" width="3.00007" height="3.00007" fill="white"/>
<rect x="6.00098" width="3.00007" height="3.00007" fill="white"/>
<rect y="6.00171" width="3.00007" height="3.00007" fill="white"/>
<rect x="32.8462" y="32.8467" width="2.92341" height="2.92341" transform="rotate(-180 32.8462 32.8467)" fill="white"/>
<rect x="35.77" y="35.77" width="2.92341" height="2.92341" transform="rotate(-180 35.77 35.77)" fill="white"/>
<rect x="35.77" y="32.8467" width="2.92341" height="2.92341" transform="rotate(-180 35.77 32.8467)" fill="white"/>
<rect x="32.8462" y="35.77" width="2.92341" height="2.92341" transform="rotate(-180 32.8462 35.77)" fill="white"/>
<rect x="29.9233" y="35.77" width="2.92341" height="2.92341" transform="rotate(-180 29.9233 35.77)" fill="white"/>
<rect x="35.77" y="29.9231" width="2.92341" height="2.92341" transform="rotate(-180 35.77 29.9231)" fill="white"/>
<rect x="3" y="30" width="3" height="3" fill="#6D6E76"/>
</svg>
