<svg width="36" height="36" viewBox="0 0 36 36" fill="none" xmlns="http://www.w3.org/2000/svg">
<mask id="path-1-inside-1_43_2000" fill="white">
<path d="M0 3.2C0 2.07989 0 1.51984 0.217987 1.09202C0.409734 0.715695 0.715695 0.409734 1.09202 0.217987C1.51984 0 2.0799 0 3.2 0H32.8C33.9201 0 34.4802 0 34.908 0.217987C35.2843 0.409734 35.5903 0.715695 35.782 1.09202C36 1.51984 36 2.0799 36 3.2V32.8C36 33.9201 36 34.4802 35.782 34.908C35.5903 35.2843 35.2843 35.5903 34.908 35.782C34.4802 36 33.9201 36 32.8 36H3.2C2.07989 36 1.51984 36 1.09202 35.782C0.715695 35.5903 0.409734 35.2843 0.217987 34.908C0 34.4802 0 33.9201 0 32.8V3.2Z"/>
</mask>
<path d="M0 3.2C0 2.07989 0 1.51984 0.217987 1.09202C0.409734 0.715695 0.715695 0.409734 1.09202 0.217987C1.51984 0 2.0799 0 3.2 0H32.8C33.9201 0 34.4802 0 34.908 0.217987C35.2843 0.409734 35.5903 0.715695 35.782 1.09202C36 1.51984 36 2.0799 36 3.2V32.8C36 33.9201 36 34.4802 35.782 34.908C35.5903 35.2843 35.2843 35.5903 34.908 35.782C34.4802 36 33.9201 36 32.8 36H3.2C2.07989 36 1.51984 36 1.09202 35.782C0.715695 35.5903 0.409734 35.2843 0.217987 34.908C0 34.4802 0 33.9201 0 32.8V3.2Z" stroke="#6D6E76" stroke-width="6" mask="url(#path-1-inside-1_43_2000)"/>
<path d="M0.217987 1.09202C0 1.51984 0 2.0799 0 3.2V9H3V6H6V3H9V0H3.2C2.0799 0 1.51984 0 1.09202 0.217987C0.715695 0.409734 0.409734 0.715695 0.217987 1.09202Z" fill="#BEBEC0"/>
<path d="M35.782 34.908C36 34.4802 36 33.9201 36 32.8L36 27L33 27L33 30L30 30L30 33L27 33L27 36L32.8 36C33.9201 36 34.4802 36 34.908 35.782C35.2843 35.5903 35.5903 35.2843 35.782 34.908Z" fill="#BEBEC0"/>
<path d="M33 3H30V6H33V3Z" fill="#6D6E76"/>
<path d="M6 30H3V33H6V30Z" fill="#6D6E76"/>
</svg>
