<svg width="36" height="36" viewBox="0 0 36 36" fill="none" xmlns="http://www.w3.org/2000/svg">
<g clip-path="url(#clip0_41_1081)">
<rect x="1.5" y="1.5" width="33" height="33" stroke="#6D6E76" stroke-width="3"/>
<rect x="3.00098" y="3.00049" width="3.00007" height="3.00007" fill="#ABACB0"/>
<rect width="3.00007" height="3.00007" fill="#ABACB0"/>
<rect y="3.00049" width="3.00007" height="3.00007" fill="#ABACB0"/>
<rect x="3.00098" width="3.00007" height="3.00007" fill="#ABACB0"/>
<rect x="6.00098" width="3.00007" height="3.00007" fill="#ABACB0"/>
<rect y="6.00171" width="3.00007" height="3.00007" fill="#ABACB0"/>
<rect x="33" y="33.0012" width="3.00007" height="3.00007" transform="rotate(-180 33 33.0012)" fill="#ABACB0"/>
<rect x="36.001" y="36.0017" width="3.00007" height="3.00007" transform="rotate(-180 36.001 36.0017)" fill="#ABACB0"/>
<rect x="36.001" y="33.0012" width="3.00007" height="3.00007" transform="rotate(-180 36.001 33.0012)" fill="#ABACB0"/>
<rect x="33" y="36.0017" width="3.00007" height="3.00007" transform="rotate(-180 33 36.0017)" fill="#ABACB0"/>
<rect x="30" y="36.0017" width="3.00007" height="3.00007" transform="rotate(-180 30 36.0017)" fill="#ABACB0"/>
<rect x="36.001" y="30" width="3.00007" height="3.00007" transform="rotate(-180 36.001 30)" fill="#ABACB0"/>
</g>
<defs>
<clipPath id="clip0_41_1081">
<rect width="36" height="36" fill="white"/>
</clipPath>
</defs>
</svg>
