<svg width="44" height="44" viewBox="0 0 44 44" fill="none" xmlns="http://www.w3.org/2000/svg">
<mask id="path-1-inside-1_44_2031" fill="white">
<path d="M0 3.2C0 2.07989 0 1.51984 0.217987 1.09202C0.409734 0.715695 0.715695 0.409734 1.09202 0.217987C1.51984 0 2.0799 0 3.2 0H40.8C41.9201 0 42.4802 0 42.908 0.217987C43.2843 0.409734 43.5903 0.715695 43.782 1.09202C44 1.51984 44 2.0799 44 3.2V40.8C44 41.9201 44 42.4802 43.782 42.908C43.5903 43.2843 43.2843 43.5903 42.908 43.782C42.4802 44 41.9201 44 40.8 44H3.2C2.07989 44 1.51984 44 1.09202 43.782C0.715695 43.5903 0.409734 43.2843 0.217987 42.908C0 42.4802 0 41.9201 0 40.8V3.2Z"/>
</mask>
<path d="M0 3.2C0 2.07989 0 1.51984 0.217987 1.09202C0.409734 0.715695 0.715695 0.409734 1.09202 0.217987C1.51984 0 2.0799 0 3.2 0H40.8C41.9201 0 42.4802 0 42.908 0.217987C43.2843 0.409734 43.5903 0.715695 43.782 1.09202C44 1.51984 44 2.0799 44 3.2V40.8C44 41.9201 44 42.4802 43.782 42.908C43.5903 43.2843 43.2843 43.5903 42.908 43.782C42.4802 44 41.9201 44 40.8 44H3.2C2.07989 44 1.51984 44 1.09202 43.782C0.715695 43.5903 0.409734 43.2843 0.217987 42.908C0 42.4802 0 41.9201 0 40.8V3.2Z" stroke="#6D6E76" stroke-width="6" mask="url(#path-1-inside-1_44_2031)"/>
<path d="M0.217987 1.09202C0 1.51984 0 2.0799 0 3.2V9H3V6H6V3H9V0H3.2C2.0799 0 1.51984 0 1.09202 0.217987C0.715695 0.409734 0.409734 0.715695 0.217987 1.09202Z" fill="#AAAAAE"/>
<path d="M43.782 42.908C44 42.4802 44 41.9201 44 40.8L44 35L41 35L41 38L38 38L38 41L35 41L35 44L40.8 44C41.9201 44 42.4802 44 42.908 43.782C43.2843 43.5903 43.5903 43.2843 43.782 42.908Z" fill="#AAAAAE"/>
<path d="M41 3H37.2V6.8H41V3Z" fill="#6D6E76"/>
<path d="M6.8 37.2H3V41H6.8V37.2Z" fill="#6D6E76"/>
</svg>
